<svg xmlns="http://www.w3.org/2000/svg" width="385.508" height="72.633" viewBox="0 0 385.508 72.633">
  <g id="Group_19" data-name="Group 19" transform="translate(-366.673 -350.361)">
    <path id="Path_31" data-name="Path 31" d="M440.7,375.333c-2.63-4.678-5.288-9.342-8.072-13.931a21.561,21.561,0,0,0-19.1-10.971q-8.244-.145-16.485.007a21.621,21.621,0,0,0-19.1,10.993c-2.881,4.739-5.629,9.561-8.309,14.415-3.4,6.164-3.99,12.693-1.144,19.115a122.627,122.627,0,0,0,10.91,19.076c3.319,4.894,8.259,7.642,14.132,8.607,3.921.646,7.871.126,11.075.309,3.656,0,6.587.1,9.507-.018a21.5,21.5,0,0,0,18.272-10.548c2.967-4.754,5.729-9.64,8.438-14.548C444.952,390.351,444.909,382.8,440.7,375.333Zm-63.76,5.051c2.852-5.026,5.672-10.081,8.693-15.007a13.169,13.169,0,0,1,11.516-6.454c5.432-.122,10.871-.144,16.3,0a13.592,13.592,0,0,1,12.019,7.193q3.945,6.808,7.846,13.644a16.548,16.548,0,0,1,.786,1.6c.3.678.065,1.015-.685,1-.477-.011-.954.007-1.432.007q-13.438.005-26.872,0-13.524,0-27.047,0C376.1,382.365,375.94,382.157,376.944,380.384Zm47.82,27.995a13.594,13.594,0,0,1-11.384,6.078q-8.056.167-16.119,0a13.6,13.6,0,0,1-11.588-6.354c-.294-.441-.8-.918-.57-1.428.251-.57.947-.283,1.442-.287,6.268-.018,12.535-.011,18.8-.011q9.224,0,18.448.011c.567,0,1.356-.273,1.647.273C425.783,407.3,425.13,407.859,424.764,408.379Zm9.095-15.746c-1.048,1.8-2.067,3.623-3.067,5.453a1.773,1.773,0,0,1-1.808.861q-23.732-.022-47.465-.007a1.58,1.58,0,0,1-1.633-.8c-1-1.83-2.084-3.616-3.1-5.435-.736-1.317-.273-1.736,1.18-1.729,9.2.043,18.39.021,27.582.021,9.077,0,18.15.025,27.223-.025C434.236,390.964,434.645,391.287,433.859,392.633Z" transform="translate(0 0)" fill="#ce0d0d"/>
    <g id="Group_17" data-name="Group 17" transform="translate(458.473 360.514)">
      <path id="Path_32" data-name="Path 32" d="M640.14,421.1a21.036,21.036,0,0,1,12.268,3.4l-3.769,7.464a13.855,13.855,0,0,0-7.908-2.143c-4.73,0-7.464,3.178-7.464,9.829s2.734,9.829,7.464,9.829a13.719,13.719,0,0,0,7.908-2.365l3.843,7.538A22.439,22.439,0,0,1,640.14,458.2c-11.455,0-17.589-7.243-17.589-18.551S628.685,421.1,640.14,421.1Z" transform="translate(-622.551 -405.873)"/>
      <path id="Path_33" data-name="Path 33" d="M731.138,437.062a28.222,28.222,0,0,1,4.361.3v-1.478c0-4.139-1.552-6.06-5.248-6.06a17.942,17.942,0,0,0-8.573,2.661l-3.843-7.317a23.976,23.976,0,0,1,13.746-4.065c7.76,0,14.116,4.73,14.116,15.077v21.211h-8.056l-.739-3.1h-.3c-2.217,2.439-4.8,3.917-9.46,3.917-5.764,0-10.864-3.917-10.864-10.569C716.283,439.427,724.043,437.062,731.138,437.062Zm-.665,12.564A7.437,7.437,0,0,0,735.5,447.7v-4.139a16.883,16.883,0,0,0-3.548-.37c-2.513,0-4.952.887-4.952,3.326C727,448.443,728.108,449.626,730.473,449.626Z" transform="translate(-682.655 -405.873)"/>
      <path id="Path_34" data-name="Path 34" d="M815.657,410.428h-5.026v-7.538h5.321l1.256-10.716,8.647-.739v11.455h8.869l-.813,7.538h-8.056v16.259a3.4,3.4,0,0,0,3.7,3.769,13.061,13.061,0,0,0,3.991-.739l2.291,7.982A21.7,21.7,0,0,1,828,439.177c-7.243,0-12.342-4.287-12.342-12.047Z" transform="translate(-743.154 -386.852)"/>
      <path id="Path_35" data-name="Path 35" d="M907.354,421.1c11.234,0,16.259,8.2,16.259,17.368a17.85,17.85,0,0,1-.369,4.213h-21.95c.887,5.4,4.508,6.8,7.612,6.8a19.244,19.244,0,0,0,10.2-3.1l3.917,7.095a24.266,24.266,0,0,1-14.929,4.73c-11.9,0-17.737-8.278-17.737-18.624C890.356,429.3,896.12,421.1,907.354,421.1Zm5.4,14.559c0-4.656-2.809-5.839-5.617-5.839-3.178,0-5.321,1.774-5.691,5.839Z" transform="translate(-794.277 -405.873)"/>
      <path id="Path_36" data-name="Path 36" d="M1002.216,421.911h8.13l.739,4.73h.3c1.4-2.734,4.878-5.543,8.573-5.543a9.017,9.017,0,0,1,4.138.739l-1.7,8.351a9.949,9.949,0,0,0-2.809-.37c-3.843,0-7.169,3.621-7.169,8.5v19.067h-10.2Z" transform="translate(-866.005 -405.873)"/>
      <path id="Path_37" data-name="Path 37" d="M1087.581,421.1a21.038,21.038,0,0,1,12.268,3.4l-3.77,7.464a13.852,13.852,0,0,0-7.907-2.143c-4.73,0-7.464,3.178-7.464,9.829s2.734,9.829,7.464,9.829a13.716,13.716,0,0,0,7.907-2.365l3.843,7.538a22.44,22.44,0,0,1-12.342,3.547c-11.456,0-17.59-7.243-17.59-18.551S1076.125,421.1,1087.581,421.1Z" transform="translate(-909.465 -405.873)"/>
      <path id="Path_38" data-name="Path 38" d="M1168.874,423.364h10.2V444.8c0,5.026,1.626,6.134,4.361,6.134a8.225,8.225,0,0,0,5.912-3.178V423.364h10.2v35.475h-8.056l-.739-3.547h-.3a11.875,11.875,0,0,1-9.164,4.36c-7.095,0-12.416-4.582-12.416-14.19Z" transform="translate(-972.872 -407.326)"/>
      <path id="Path_39" data-name="Path 39" d="M1277.232,421.911h8.13l.739,4.73h.3c1.4-2.734,4.878-5.543,8.573-5.543a9.018,9.018,0,0,1,4.139.739l-1.7,8.351a9.952,9.952,0,0,0-2.809-.37c-3.843,0-7.169,3.621-7.169,8.5v19.067h-10.2Z" transform="translate(-1042.354 -405.873)"/>
      <path id="Path_40" data-name="Path 40" d="M1349.745,379.4l10.2-.739v18.329a12.546,12.546,0,0,1,8.056-3.1c9.017,0,14.559,7.243,14.559,18.4,0,10.051-5.247,18.7-15.225,18.7a11.322,11.322,0,0,1-8.5-3.917h-.295l-.74,3.1h-8.056Zm15.521,42.865c4.287,0,6.578-3.03,6.578-9.977,0-7.243-2.587-9.682-6.061-9.682a10.176,10.176,0,0,0-5.839,2.069v15.668A8.687,8.687,0,0,0,1365.265,422.266Z" transform="translate(-1088.852 -378.662)"/>
    </g>
    <circle id="Ellipse_3" data-name="Ellipse 3" cx="2.516" cy="2.516" r="2.516" transform="translate(384.455 373.714)" fill="#ce0d0d"/>
    <circle id="Ellipse_4" data-name="Ellipse 4" cx="2.325" cy="2.325" r="2.325" transform="translate(391.135 365.096)" fill="#ce0d0d"/>
    <circle id="Ellipse_5" data-name="Ellipse 5" cx="2.325" cy="2.325" r="2.325" transform="translate(396.911 373.905)" fill="#ce0d0d"/>
    <circle id="Ellipse_6" data-name="Ellipse 6" cx="2.325" cy="2.325" r="2.325" transform="translate(403.02 365.096)" fill="#ce0d0d"/>
    <circle id="Ellipse_7" data-name="Ellipse 7" cx="2.325" cy="2.325" r="2.325" transform="translate(408.984 373.905)" fill="#ce0d0d"/>
    <circle id="Ellipse_8" data-name="Ellipse 8" cx="2.325" cy="2.325" r="2.325" transform="translate(414.906 365.096)" fill="#ce0d0d"/>
    <circle id="Ellipse_9" data-name="Ellipse 9" cx="2.325" cy="2.325" r="2.325" transform="translate(421.057 373.905)" fill="#ce0d0d"/>
  </g>
</svg>
