<svg xmlns="http://www.w3.org/2000/svg" width="160.982" height="30.33" viewBox="0 0 160.982 30.33">
  <g id="Group_19" data-name="Group 19" transform="translate(-366.673 -350.361)">
    <path id="Path_31" data-name="Path 31" d="M397.587,360.789c-1.1-1.954-2.208-3.9-3.371-5.817a9,9,0,0,0-7.978-4.581q-3.443-.061-6.884,0a9.029,9.029,0,0,0-7.976,4.59c-1.2,1.979-2.351,3.993-3.47,6.02a8.655,8.655,0,0,0-.478,7.982,51.207,51.207,0,0,0,4.556,7.966,8.5,8.5,0,0,0,5.9,3.594,38.522,38.522,0,0,0,4.625.129c1.527,0,2.751.043,3.97-.008a8.98,8.98,0,0,0,7.63-4.4c1.239-1.985,2.393-4.026,3.524-6.075A9.112,9.112,0,0,0,397.587,360.789ZM370.962,362.9c1.191-2.1,2.369-4.21,3.63-6.267a5.5,5.5,0,0,1,4.809-2.7c2.268-.051,4.539-.06,6.806,0a5.676,5.676,0,0,1,5.019,3q1.647,2.843,3.276,5.7a6.9,6.9,0,0,1,.328.668c.124.283.027.424-.286.418-.2,0-.4,0-.6,0q-5.611,0-11.221,0-5.647,0-11.295,0C370.609,363.725,370.543,363.638,370.962,362.9Zm19.969,11.69a5.677,5.677,0,0,1-4.754,2.538q-3.364.07-6.731,0a5.68,5.68,0,0,1-4.839-2.653c-.123-.184-.333-.384-.238-.6.1-.238.4-.118.6-.12,2.617-.007,5.235,0,7.852,0q3.852,0,7.7,0c.237,0,.566-.114.688.114C391.357,374.137,391.084,374.371,390.931,374.588Zm3.8-6.575q-.656,1.128-1.281,2.277a.74.74,0,0,1-.755.359q-9.91-.009-19.821,0a.66.66,0,0,1-.682-.333c-.418-.764-.87-1.51-1.3-2.27-.307-.55-.114-.725.493-.722,3.84.018,7.68.009,11.518.009,3.79,0,7.579.01,11.368-.01C394.886,367.316,395.057,367.451,394.729,368.013Z" transform="translate(0)" fill="#ce0d0d"/>
    <g id="Group_17" data-name="Group 17" transform="translate(405.008 354.601)">
      <path id="Path_32" data-name="Path 32" d="M629.9,421.1a8.784,8.784,0,0,1,5.123,1.42l-1.574,3.117a5.786,5.786,0,0,0-3.3-.9c-1.975,0-3.117,1.327-3.117,4.1s1.142,4.1,3.117,4.1a5.729,5.729,0,0,0,3.3-.988l1.6,3.148a9.37,9.37,0,0,1-5.154,1.481c-4.784,0-7.345-3.025-7.345-7.746S625.112,421.1,629.9,421.1Z" transform="translate(-622.551 -414.74)"/>
      <path id="Path_33" data-name="Path 33" d="M722.486,427.764a11.789,11.789,0,0,1,1.821.123v-.617c0-1.728-.648-2.531-2.191-2.531a7.492,7.492,0,0,0-3.58,1.111l-1.6-3.055a10.012,10.012,0,0,1,5.74-1.7c3.24,0,5.895,1.975,5.895,6.3v8.857H725.2l-.309-1.3h-.123a4.79,4.79,0,0,1-3.95,1.636,4.325,4.325,0,0,1-4.537-4.413C716.283,428.752,719.523,427.764,722.486,427.764Zm-.278,5.247a3.105,3.105,0,0,0,2.1-.8V430.48a7.049,7.049,0,0,0-1.481-.154c-1.049,0-2.068.37-2.068,1.389C720.758,432.517,721.221,433.011,722.208,433.011Z" transform="translate(-702.24 -414.74)"/>
      <path id="Path_34" data-name="Path 34" d="M812.73,399.366h-2.1v-3.148h2.222l.525-4.475,3.611-.309v4.784h3.7l-.339,3.148h-3.364v6.79a1.418,1.418,0,0,0,1.543,1.574,5.454,5.454,0,0,0,1.667-.309l.957,3.333a9.061,9.061,0,0,1-3.271.617c-3.024,0-5.154-1.79-5.154-5.031Z" transform="translate(-782.454 -389.521)"/>
      <path id="Path_35" data-name="Path 35" d="M897.454,421.1c4.691,0,6.79,3.426,6.79,7.253a7.453,7.453,0,0,1-.154,1.759h-9.166a3.029,3.029,0,0,0,3.179,2.839,8.036,8.036,0,0,0,4.259-1.3L904,434.616a10.133,10.133,0,0,1-6.234,1.975c-4.969,0-7.407-3.457-7.407-7.777C890.356,424.524,892.763,421.1,897.454,421.1Zm2.253,6.08a2.133,2.133,0,0,0-2.346-2.438c-1.327,0-2.222.741-2.376,2.438Z" transform="translate(-850.235 -414.74)"/>
      <path id="Path_36" data-name="Path 36" d="M1002.216,421.437h3.395l.309,1.975h.123a4.371,4.371,0,0,1,3.58-2.315,3.766,3.766,0,0,1,1.728.309l-.71,3.487a4.155,4.155,0,0,0-1.173-.154,3.291,3.291,0,0,0-2.994,3.549v7.962h-4.259Z" transform="translate(-945.336 -414.74)"/>
      <path id="Path_37" data-name="Path 37" d="M1077.336,421.1a8.785,8.785,0,0,1,5.123,1.42l-1.574,3.117a5.784,5.784,0,0,0-3.3-.9c-1.975,0-3.117,1.327-3.117,4.1s1.142,4.1,3.117,4.1a5.727,5.727,0,0,0,3.3-.988l1.6,3.148a9.37,9.37,0,0,1-5.154,1.481c-4.784,0-7.345-3.025-7.345-7.746S1072.552,421.1,1077.336,421.1Z" transform="translate(-1002.958 -414.74)"/>
      <path id="Path_38" data-name="Path 38" d="M1168.874,423.364h4.259v8.95c0,2.1.679,2.562,1.821,2.562a3.435,3.435,0,0,0,2.469-1.327V423.364h4.259v14.814h-3.364l-.309-1.481h-.124a4.959,4.959,0,0,1-3.827,1.821c-2.963,0-5.185-1.913-5.185-5.926Z" transform="translate(-1087.026 -416.667)"/>
      <path id="Path_39" data-name="Path 39" d="M1277.232,421.437h3.4l.308,1.975h.123a4.371,4.371,0,0,1,3.58-2.315,3.766,3.766,0,0,1,1.728.309l-.71,3.487a4.156,4.156,0,0,0-1.173-.154,3.291,3.291,0,0,0-2.994,3.549v7.962h-4.259Z" transform="translate(-1179.151 -414.74)"/>
      <path id="Path_40" data-name="Path 40" d="M1349.745,378.971l4.259-.309v7.654a5.239,5.239,0,0,1,3.364-1.3c3.765,0,6.08,3.024,6.08,7.685,0,4.2-2.191,7.808-6.358,7.808a4.728,4.728,0,0,1-3.549-1.636h-.123l-.309,1.3h-3.364Zm6.481,17.9c1.79,0,2.747-1.265,2.747-4.166,0-3.025-1.08-4.043-2.531-4.043a4.249,4.249,0,0,0-2.438.864v6.543A3.627,3.627,0,0,0,1356.226,396.871Z" transform="translate(-1240.8 -378.662)"/>
    </g>
    <circle id="Ellipse_3" data-name="Ellipse 3" cx="1.051" cy="1.051" r="1.051" transform="translate(374.099 360.113)" fill="#ce0d0d"/>
    <circle id="Ellipse_4" data-name="Ellipse 4" cx="0.971" cy="0.971" r="0.971" transform="translate(376.888 356.514)" fill="#ce0d0d"/>
    <circle id="Ellipse_5" data-name="Ellipse 5" cx="0.971" cy="0.971" r="0.971" transform="translate(379.3 360.193)" fill="#ce0d0d"/>
    <circle id="Ellipse_6" data-name="Ellipse 6" cx="0.971" cy="0.971" r="0.971" transform="translate(381.851 356.514)" fill="#ce0d0d"/>
    <circle id="Ellipse_7" data-name="Ellipse 7" cx="0.971" cy="0.971" r="0.971" transform="translate(384.341 360.193)" fill="#ce0d0d"/>
    <circle id="Ellipse_8" data-name="Ellipse 8" cx="0.971" cy="0.971" r="0.971" transform="translate(386.814 356.514)" fill="#ce0d0d"/>
    <circle id="Ellipse_9" data-name="Ellipse 9" cx="0.971" cy="0.971" r="0.971" transform="translate(389.383 360.193)" fill="#ce0d0d"/>
  </g>
</svg>
