<svg xmlns="http://www.w3.org/2000/svg" width="43.16" height="17.52" viewBox="0 0 43.16 17.52">
  <g id="Group_67" data-name="Group 67" transform="translate(-139.553 -1022.773)">
    <path id="Path_99" data-name="Path 99" d="M6,5.6a6.424,6.424,0,0,1,2.15.37A4.544,4.544,0,0,1,9.96,7.14L8.52,8.54a3.322,3.322,0,0,0-1.11-.91A3.264,3.264,0,0,0,6,7.28V12l-.04.02q.86.24,1.65.53A5.4,5.4,0,0,1,9,13.29a3.354,3.354,0,0,1,.96,1.13,3.606,3.606,0,0,1,.36,1.7,3.835,3.835,0,0,1-.35,1.66,3.967,3.967,0,0,1-.94,1.27,4.356,4.356,0,0,1-1.38.83A5.749,5.749,0,0,1,6,20.24v1.44H4.92V20.24a6.833,6.833,0,0,1-2.45-.43A4.455,4.455,0,0,1,.52,18.32l1.54-1.38A3.124,3.124,0,0,0,3.3,18.11a3.84,3.84,0,0,0,1.62.45V13.64a10.053,10.053,0,0,1-1.55-.51,5.094,5.094,0,0,1-1.3-.79,3.491,3.491,0,0,1-.9-1.16A3.728,3.728,0,0,1,.84,9.54a3.46,3.46,0,0,1,.34-1.55,4,4,0,0,1,.9-1.2,4.486,4.486,0,0,1,1.3-.82A4.911,4.911,0,0,1,4.92,5.6V4.16H6ZM4.92,7.28a2.891,2.891,0,0,0-1.56.73,2.011,2.011,0,0,0-.6,1.53,1.793,1.793,0,0,0,.18.83,2.028,2.028,0,0,0,.48.61,2.9,2.9,0,0,0,.69.44,5.6,5.6,0,0,0,.81.3ZM6,18.56a3.466,3.466,0,0,0,.93-.24,2.628,2.628,0,0,0,.76-.48A2.141,2.141,0,0,0,8.4,16.2a1.776,1.776,0,0,0-.21-.89,2.136,2.136,0,0,0-.54-.63,3.183,3.183,0,0,0-.77-.44q-.44-.18-.88-.32ZM17.12,5.6a6.424,6.424,0,0,1,2.15.37,4.544,4.544,0,0,1,1.81,1.17l-1.44,1.4a3.322,3.322,0,0,0-1.11-.91,3.264,3.264,0,0,0-1.41-.35V12l-.04.02q.86.24,1.65.53a5.4,5.4,0,0,1,1.39.74,3.354,3.354,0,0,1,.96,1.13,3.606,3.606,0,0,1,.36,1.7,3.835,3.835,0,0,1-.35,1.66,3.967,3.967,0,0,1-.94,1.27,4.356,4.356,0,0,1-1.38.83,5.749,5.749,0,0,1-1.65.36v1.44H16.04V20.24a6.833,6.833,0,0,1-2.45-.43,4.455,4.455,0,0,1-1.95-1.49l1.54-1.38a3.124,3.124,0,0,0,1.24,1.17,3.84,3.84,0,0,0,1.62.45V13.64a10.053,10.053,0,0,1-1.55-.51,5.094,5.094,0,0,1-1.3-.79,3.491,3.491,0,0,1-.9-1.16,3.728,3.728,0,0,1-.33-1.64,3.46,3.46,0,0,1,.34-1.55,4,4,0,0,1,.9-1.2,4.486,4.486,0,0,1,1.3-.82,4.911,4.911,0,0,1,1.54-.37V4.16h1.08ZM16.04,7.28a2.891,2.891,0,0,0-1.56.73,2.011,2.011,0,0,0-.6,1.53,1.793,1.793,0,0,0,.18.83,2.028,2.028,0,0,0,.48.61,2.9,2.9,0,0,0,.69.44,5.6,5.6,0,0,0,.81.3Zm1.08,11.28a3.466,3.466,0,0,0,.93-.24,2.628,2.628,0,0,0,.76-.48,2.141,2.141,0,0,0,.71-1.64,1.776,1.776,0,0,0-.21-.89,2.136,2.136,0,0,0-.54-.63,3.183,3.183,0,0,0-.77-.44q-.44-.18-.88-.32ZM28.24,5.6a6.424,6.424,0,0,1,2.15.37A4.544,4.544,0,0,1,32.2,7.14l-1.44,1.4a3.322,3.322,0,0,0-1.11-.91,3.264,3.264,0,0,0-1.41-.35V12l-.04.02q.86.24,1.65.53a5.4,5.4,0,0,1,1.39.74,3.354,3.354,0,0,1,.96,1.13,3.606,3.606,0,0,1,.36,1.7,3.835,3.835,0,0,1-.35,1.66,3.967,3.967,0,0,1-.94,1.27,4.356,4.356,0,0,1-1.38.83,5.749,5.749,0,0,1-1.65.36v1.44H27.16V20.24a6.833,6.833,0,0,1-2.45-.43,4.455,4.455,0,0,1-1.95-1.49l1.54-1.38a3.124,3.124,0,0,0,1.24,1.17,3.84,3.84,0,0,0,1.62.45V13.64a10.053,10.053,0,0,1-1.55-.51,5.094,5.094,0,0,1-1.3-.79,3.491,3.491,0,0,1-.9-1.16,3.728,3.728,0,0,1-.33-1.64,3.46,3.46,0,0,1,.34-1.55,4,4,0,0,1,.9-1.2,4.486,4.486,0,0,1,1.3-.82,4.911,4.911,0,0,1,1.54-.37V4.16h1.08ZM27.16,7.28a2.891,2.891,0,0,0-1.56.73A2.011,2.011,0,0,0,25,9.54a1.793,1.793,0,0,0,.18.83,2.028,2.028,0,0,0,.48.61,2.9,2.9,0,0,0,.69.44,5.6,5.6,0,0,0,.81.3Zm1.08,11.28a3.466,3.466,0,0,0,.93-.24,2.628,2.628,0,0,0,.76-.48,2.141,2.141,0,0,0,.71-1.64,1.776,1.776,0,0,0-.21-.89,2.136,2.136,0,0,0-.54-.63,3.183,3.183,0,0,0-.77-.44q-.44-.18-.88-.32Z" transform="translate(139.033 1018.613)"/>
    <path id="Path_96" data-name="Path 96" d="M39.36,5.6a6.424,6.424,0,0,1,2.15.37,4.544,4.544,0,0,1,1.81,1.17l-1.44,1.4a3.322,3.322,0,0,0-1.11-.91,3.264,3.264,0,0,0-1.41-.35V12l-.04.02q.86.24,1.65.53a5.4,5.4,0,0,1,1.39.74,3.354,3.354,0,0,1,.96,1.13,3.606,3.606,0,0,1,.36,1.7,3.835,3.835,0,0,1-.35,1.66,3.967,3.967,0,0,1-.94,1.27,4.356,4.356,0,0,1-1.38.83,5.749,5.749,0,0,1-1.65.36v1.44H38.28V20.24a6.832,6.832,0,0,1-2.45-.43,4.455,4.455,0,0,1-1.95-1.49l1.54-1.38a3.124,3.124,0,0,0,1.24,1.17,3.84,3.84,0,0,0,1.62.45V13.64a10.053,10.053,0,0,1-1.55-.51,5.094,5.094,0,0,1-1.3-.79,3.491,3.491,0,0,1-.9-1.16,3.728,3.728,0,0,1-.33-1.64,3.46,3.46,0,0,1,.34-1.55,4,4,0,0,1,.9-1.2,4.486,4.486,0,0,1,1.3-.82,4.911,4.911,0,0,1,1.54-.37V4.16h1.08ZM38.28,7.28a2.891,2.891,0,0,0-1.56.73,2.011,2.011,0,0,0-.6,1.53,1.793,1.793,0,0,0,.18.83,2.028,2.028,0,0,0,.48.61,2.9,2.9,0,0,0,.69.44,5.6,5.6,0,0,0,.81.3Zm1.08,11.28a3.466,3.466,0,0,0,.93-.24,2.628,2.628,0,0,0,.76-.48,2.141,2.141,0,0,0,.71-1.64,1.776,1.776,0,0,0-.21-.89,2.136,2.136,0,0,0-.54-.63,3.183,3.183,0,0,0-.77-.44q-.44-.18-.88-.32Z" transform="translate(139.033 1018.613)" fill="rgba(0,0,0,0.21)"/>
  </g>
</svg>
