<svg xmlns="http://www.w3.org/2000/svg" width="245.329" height="46.222" viewBox="0 0 245.329 46.222">
  <g id="Group_19" data-name="Group 19" transform="translate(-366.673 -350.361)">
    <path id="Path_31" data-name="Path 31" d="M413.785,366.253c-1.674-2.977-3.365-5.945-5.137-8.865a13.721,13.721,0,0,0-12.158-6.982q-5.247-.092-10.491,0a13.759,13.759,0,0,0-12.155,7c-1.833,3.016-3.582,6.085-5.288,9.174a13.19,13.19,0,0,0-.728,12.164,78.035,78.035,0,0,0,6.943,12.139,12.957,12.957,0,0,0,8.993,5.477c2.5.411,5.009.08,7.048.2,2.326,0,4.192.066,6.05-.011a13.685,13.685,0,0,0,11.628-6.712c1.888-3.025,3.646-6.135,5.37-9.258A13.886,13.886,0,0,0,413.785,366.253Zm-40.575,3.215c1.815-3.2,3.61-6.415,5.532-9.55a8.38,8.38,0,0,1,7.329-4.107c3.457-.078,6.918-.091,10.372,0a8.649,8.649,0,0,1,7.648,4.578q2.51,4.332,4.993,8.683a10.527,10.527,0,0,1,.5,1.018c.19.432.041.646-.436.637-.3-.007-.607,0-.911,0q-8.551,0-17.1,0-8.606,0-17.212,0C372.671,370.727,372.57,370.595,373.209,369.467Zm30.432,17.815a8.651,8.651,0,0,1-7.244,3.868q-5.127.106-10.258,0a8.656,8.656,0,0,1-7.374-4.043c-.187-.281-.507-.585-.363-.909.16-.363.6-.18.918-.183,3.989-.011,7.977-.007,11.966-.007q5.87,0,11.74.007c.361,0,.863-.173,1.048.174C404.289,386.6,403.874,386.951,403.641,387.282Zm5.788-10.021q-1,1.719-1.952,3.47a1.128,1.128,0,0,1-1.151.548q-15.1-.014-30.206,0a1,1,0,0,1-1.039-.507c-.637-1.164-1.326-2.3-1.975-3.459-.468-.838-.174-1.105.751-1.1,5.852.027,11.7.014,17.552.014,5.776,0,11.55.016,17.324-.016C409.668,376.2,409.929,376.406,409.429,377.262Z" transform="translate(0 0)" fill="#ce0d0d"/>
    <g id="Group_17" data-name="Group 17" transform="translate(425.093 356.822)">
      <path id="Path_32" data-name="Path 32" d="M633.744,421.1a13.387,13.387,0,0,1,7.807,2.164l-2.4,4.75a8.817,8.817,0,0,0-5.032-1.364c-3.01,0-4.75,2.022-4.75,6.255s1.74,6.255,4.75,6.255a8.73,8.73,0,0,0,5.032-1.505l2.445,4.8a14.279,14.279,0,0,1-7.854,2.258c-7.29,0-11.193-4.609-11.193-11.805S626.454,421.1,633.744,421.1Z" transform="translate(-622.551 -411.409)" fill="#fff"/>
      <path id="Path_33" data-name="Path 33" d="M725.736,431.257a17.965,17.965,0,0,1,2.775.188V430.5c0-2.634-.988-3.857-3.339-3.857a11.418,11.418,0,0,0-5.456,1.693l-2.446-4.656a15.257,15.257,0,0,1,8.748-2.587c4.938,0,8.983,3.01,8.983,9.594v13.5h-5.127l-.47-1.975h-.188a7.3,7.3,0,0,1-6.02,2.493,6.592,6.592,0,0,1-6.914-6.726C716.283,432.762,721.221,431.257,725.736,431.257Zm-.423,8a4.732,4.732,0,0,0,3.2-1.223V435.4a10.741,10.741,0,0,0-2.258-.235c-1.6,0-3.151.564-3.151,2.116C723.1,438.5,723.808,439.252,725.313,439.252Z" transform="translate(-694.883 -411.409)" fill="#fff"/>
      <path id="Path_34" data-name="Path 34" d="M813.829,403.521h-3.2v-4.8h3.386l.8-6.82,5.5-.47v7.29h5.644l-.517,4.8H820.32v10.347a2.161,2.161,0,0,0,2.352,2.4,8.312,8.312,0,0,0,2.54-.47l1.458,5.08a13.808,13.808,0,0,1-4.985.941c-4.609,0-7.854-2.728-7.854-7.666Z" transform="translate(-767.69 -388.518)" fill="#fff"/>
      <path id="Path_35" data-name="Path 35" d="M901.173,421.1c7.149,0,10.347,5.221,10.347,11.052a11.355,11.355,0,0,1-.235,2.681H897.317c.564,3.433,2.869,4.327,4.844,4.327a12.246,12.246,0,0,0,6.49-1.975l2.493,4.515a15.442,15.442,0,0,1-9.5,3.01c-7.572,0-11.287-5.268-11.287-11.852C890.356,426.319,894.024,421.1,901.173,421.1Zm3.433,9.265c0-2.963-1.787-3.716-3.574-3.716-2.022,0-3.386,1.129-3.621,3.716Z" transform="translate(-829.213 -411.409)" fill="#fff"/>
      <path id="Path_36" data-name="Path 36" d="M1002.216,421.615h5.173l.47,3.01h.188a6.661,6.661,0,0,1,5.456-3.527,5.74,5.74,0,0,1,2.634.47l-1.082,5.315a6.332,6.332,0,0,0-1.787-.235c-2.446,0-4.562,2.3-4.562,5.409v12.134h-6.49Z" transform="translate(-915.534 -411.409)" fill="#fff"/>
      <path id="Path_37" data-name="Path 37" d="M1081.185,421.1a13.388,13.388,0,0,1,7.807,2.164l-2.4,4.75a8.816,8.816,0,0,0-5.032-1.364c-3.01,0-4.75,2.022-4.75,6.255s1.74,6.255,4.75,6.255a8.728,8.728,0,0,0,5.032-1.505l2.446,4.8a14.279,14.279,0,0,1-7.854,2.258c-7.29,0-11.194-4.609-11.194-11.805S1073.895,421.1,1081.185,421.1Z" transform="translate(-967.836 -411.409)" fill="#fff"/>
      <path id="Path_38" data-name="Path 38" d="M1168.874,423.364h6.49V437c0,3.2,1.035,3.9,2.775,3.9a5.234,5.234,0,0,0,3.762-2.022V423.364h6.49v22.575h-5.127l-.47-2.258h-.188a7.558,7.558,0,0,1-5.832,2.775c-4.515,0-7.9-2.916-7.9-9.03Z" transform="translate(-1044.143 -413.158)" fill="#fff"/>
      <path id="Path_39" data-name="Path 39" d="M1277.232,421.615h5.174l.47,3.01h.188a6.661,6.661,0,0,1,5.456-3.527,5.74,5.74,0,0,1,2.634.47l-1.081,5.315a6.333,6.333,0,0,0-1.788-.235c-2.446,0-4.562,2.3-4.562,5.409v12.134h-6.49Z" transform="translate(-1127.761 -411.409)" fill="#fff"/>
      <path id="Path_40" data-name="Path 40" d="M1349.745,379.132l6.49-.47v11.664a7.984,7.984,0,0,1,5.127-1.975c5.738,0,9.265,4.609,9.265,11.711,0,6.4-3.339,11.9-9.689,11.9a7.206,7.206,0,0,1-5.409-2.493h-.188l-.47,1.975h-5.127Zm9.877,27.279c2.728,0,4.186-1.928,4.186-6.349,0-4.609-1.646-6.161-3.857-6.161a6.476,6.476,0,0,0-3.716,1.317v9.971A5.528,5.528,0,0,0,1359.622,406.411Z" transform="translate(-1183.719 -378.662)" fill="#fff"/>
    </g>
    <circle id="Ellipse_3" data-name="Ellipse 3" cx="1.601" cy="1.601" r="1.601" transform="translate(377.989 365.222)" fill="#ce0d0d"/>
    <circle id="Ellipse_4" data-name="Ellipse 4" cx="1.479" cy="1.479" r="1.479" transform="translate(382.24 359.738)" fill="#ce0d0d"/>
    <circle id="Ellipse_5" data-name="Ellipse 5" cx="1.479" cy="1.479" r="1.479" transform="translate(385.916 365.344)" fill="#ce0d0d"/>
    <circle id="Ellipse_6" data-name="Ellipse 6" cx="1.479" cy="1.479" r="1.479" transform="translate(389.804 359.738)" fill="#ce0d0d"/>
    <circle id="Ellipse_7" data-name="Ellipse 7" cx="1.479" cy="1.479" r="1.479" transform="translate(393.599 365.344)" fill="#ce0d0d"/>
    <circle id="Ellipse_8" data-name="Ellipse 8" cx="1.479" cy="1.479" r="1.479" transform="translate(397.367 359.738)" fill="#ce0d0d"/>
    <circle id="Ellipse_9" data-name="Ellipse 9" cx="1.479" cy="1.479" r="1.479" transform="translate(401.282 365.344)" fill="#ce0d0d"/>
  </g>
</svg>
